<svg xmlns="http://www.w3.org/2000/svg" viewBox="0 0 960 640" font-family="Helvetica, Arial, sans-serif">
<defs><marker id="u" viewBox="0 0 10 10" refX="9" refY="5" markerWidth="7" markerHeight="7" orient="auto-start-reverse"><path d="M 0 0 L 10 5 L 0 10 z" fill="#868e96"/></marker></defs>
<text x="480" y="38" text-anchor="middle" font-size="15" font-weight="bold" fill="#373a3c">cyclic time: a circle that unrolls into a row of bits</text>
<path d="M 115.6 96.3 L 113.0 76.5 A 54 54 0 0 1 127.0 76.5 L 124.4 96.3 A 34 34 0 0 0 115.6 96.3 Z" fill="#2780e3" stroke="#fff" stroke-width="1"/>
<path d="M 124.4 96.3 L 127.0 76.5 A 54 54 0 0 1 140.7 80.1 L 133.0 98.6 A 34 34 0 0 0 124.4 96.3 Z" fill="#eef1f4" stroke="#fff" stroke-width="1"/>
<path d="M 133.0 98.6 L 140.7 80.1 A 54 54 0 0 1 152.9 87.2 L 140.7 103.0 A 34 34 0 0 0 133.0 98.6 Z" fill="#eef1f4" stroke="#fff" stroke-width="1"/>
<path d="M 140.7 103.0 L 152.9 87.2 A 54 54 0 0 1 162.8 97.1 L 147.0 109.3 A 34 34 0 0 0 140.7 103.0 Z" fill="#eef1f4" stroke="#fff" stroke-width="1"/>
<path d="M 147.0 109.3 L 162.8 97.1 A 54 54 0 0 1 169.9 109.3 L 151.4 117.0 A 34 34 0 0 0 147.0 109.3 Z" fill="#eef1f4" stroke="#fff" stroke-width="1"/>
<path d="M 151.4 117.0 L 169.9 109.3 A 54 54 0 0 1 173.5 123.0 L 153.7 125.6 A 34 34 0 0 0 151.4 117.0 Z" fill="#eef1f4" stroke="#fff" stroke-width="1"/>
<path d="M 153.7 125.6 L 173.5 123.0 A 54 54 0 0 1 173.5 137.0 L 153.7 134.4 A 34 34 0 0 0 153.7 125.6 Z" fill="#eef1f4" stroke="#fff" stroke-width="1"/>
<path d="M 153.7 134.4 L 173.5 137.0 A 54 54 0 0 1 169.9 150.7 L 151.4 143.0 A 34 34 0 0 0 153.7 134.4 Z" fill="#eef1f4" stroke="#fff" stroke-width="1"/>
<path d="M 151.4 143.0 L 169.9 150.7 A 54 54 0 0 1 162.8 162.9 L 147.0 150.7 A 34 34 0 0 0 151.4 143.0 Z" fill="#eef1f4" stroke="#fff" stroke-width="1"/>
<path d="M 147.0 150.7 L 162.8 162.9 A 54 54 0 0 1 152.9 172.8 L 140.7 157.0 A 34 34 0 0 0 147.0 150.7 Z" fill="#eef1f4" stroke="#fff" stroke-width="1"/>
<path d="M 140.7 157.0 L 152.9 172.8 A 54 54 0 0 1 140.7 179.9 L 133.0 161.4 A 34 34 0 0 0 140.7 157.0 Z" fill="#eef1f4" stroke="#fff" stroke-width="1"/>
<path d="M 133.0 161.4 L 140.7 179.9 A 54 54 0 0 1 127.0 183.5 L 124.4 163.7 A 34 34 0 0 0 133.0 161.4 Z" fill="#eef1f4" stroke="#fff" stroke-width="1"/>
<path d="M 124.4 163.7 L 127.0 183.5 A 54 54 0 0 1 113.0 183.5 L 115.6 163.7 A 34 34 0 0 0 124.4 163.7 Z" fill="#eef1f4" stroke="#fff" stroke-width="1"/>
<path d="M 115.6 163.7 L 113.0 183.5 A 54 54 0 0 1 99.3 179.9 L 107.0 161.4 A 34 34 0 0 0 115.6 163.7 Z" fill="#eef1f4" stroke="#fff" stroke-width="1"/>
<path d="M 107.0 161.4 L 99.3 179.9 A 54 54 0 0 1 87.1 172.8 L 99.3 157.0 A 34 34 0 0 0 107.0 161.4 Z" fill="#eef1f4" stroke="#fff" stroke-width="1"/>
<path d="M 99.3 157.0 L 87.1 172.8 A 54 54 0 0 1 77.2 162.9 L 93.0 150.7 A 34 34 0 0 0 99.3 157.0 Z" fill="#eef1f4" stroke="#fff" stroke-width="1"/>
<path d="M 93.0 150.7 L 77.2 162.9 A 54 54 0 0 1 70.1 150.7 L 88.6 143.0 A 34 34 0 0 0 93.0 150.7 Z" fill="#eef1f4" stroke="#fff" stroke-width="1"/>
<path d="M 88.6 143.0 L 70.1 150.7 A 54 54 0 0 1 66.5 137.0 L 86.3 134.4 A 34 34 0 0 0 88.6 143.0 Z" fill="#eef1f4" stroke="#fff" stroke-width="1"/>
<path d="M 86.3 134.4 L 66.5 137.0 A 54 54 0 0 1 66.5 123.0 L 86.3 125.6 A 34 34 0 0 0 86.3 134.4 Z" fill="#eef1f4" stroke="#fff" stroke-width="1"/>
<path d="M 86.3 125.6 L 66.5 123.0 A 54 54 0 0 1 70.1 109.3 L 88.6 117.0 A 34 34 0 0 0 86.3 125.6 Z" fill="#eef1f4" stroke="#fff" stroke-width="1"/>
<path d="M 88.6 117.0 L 70.1 109.3 A 54 54 0 0 1 77.2 97.1 L 93.0 109.3 A 34 34 0 0 0 88.6 117.0 Z" fill="#2780e3" stroke="#fff" stroke-width="1"/>
<path d="M 93.0 109.3 L 77.2 97.1 A 54 54 0 0 1 87.1 87.2 L 99.3 103.0 A 34 34 0 0 0 93.0 109.3 Z" fill="#2780e3" stroke="#fff" stroke-width="1"/>
<path d="M 99.3 103.0 L 87.1 87.2 A 54 54 0 0 1 99.3 80.1 L 107.0 98.6 A 34 34 0 0 0 99.3 103.0 Z" fill="#2780e3" stroke="#fff" stroke-width="1"/>
<path d="M 107.0 98.6 L 99.3 80.1 A 54 54 0 0 1 113.0 76.5 L 115.6 96.3 A 34 34 0 0 0 107.0 98.6 Z" fill="#2780e3" stroke="#fff" stroke-width="1"/>
<line x1="120" y1="73" x2="120" y2="99" stroke="#d9230f" stroke-width="2"/>
<text x="120" y="134" text-anchor="middle" font-size="14" font-weight="bold" fill="#373a3c">day</text>
<line x1="190" y1="130" x2="248" y2="130" stroke="#868e96" stroke-width="2" marker-end="url(#u)"/>
<text x="219" y="120" text-anchor="middle" font-size="11" fill="#868e96">unrolls</text>
<rect x="270.0" y="118" width="24.8" height="24" rx="2" fill="#2780e3" stroke="#c9ccd0" stroke-width="0.8"/>
<rect x="296.2" y="118" width="24.8" height="24" rx="2" fill="#eef1f4" stroke="#c9ccd0" stroke-width="0.8"/>
<rect x="322.5" y="118" width="24.8" height="24" rx="2" fill="#eef1f4" stroke="#c9ccd0" stroke-width="0.8"/>
<rect x="348.8" y="118" width="24.8" height="24" rx="2" fill="#eef1f4" stroke="#c9ccd0" stroke-width="0.8"/>
<rect x="375.0" y="118" width="24.8" height="24" rx="2" fill="#eef1f4" stroke="#c9ccd0" stroke-width="0.8"/>
<rect x="401.2" y="118" width="24.8" height="24" rx="2" fill="#eef1f4" stroke="#c9ccd0" stroke-width="0.8"/>
<rect x="427.5" y="118" width="24.8" height="24" rx="2" fill="#eef1f4" stroke="#c9ccd0" stroke-width="0.8"/>
<rect x="453.8" y="118" width="24.8" height="24" rx="2" fill="#eef1f4" stroke="#c9ccd0" stroke-width="0.8"/>
<rect x="480.0" y="118" width="24.8" height="24" rx="2" fill="#eef1f4" stroke="#c9ccd0" stroke-width="0.8"/>
<rect x="506.2" y="118" width="24.8" height="24" rx="2" fill="#eef1f4" stroke="#c9ccd0" stroke-width="0.8"/>
<rect x="532.5" y="118" width="24.8" height="24" rx="2" fill="#eef1f4" stroke="#c9ccd0" stroke-width="0.8"/>
<rect x="558.8" y="118" width="24.8" height="24" rx="2" fill="#eef1f4" stroke="#c9ccd0" stroke-width="0.8"/>
<rect x="585.0" y="118" width="24.8" height="24" rx="2" fill="#eef1f4" stroke="#c9ccd0" stroke-width="0.8"/>
<rect x="611.2" y="118" width="24.8" height="24" rx="2" fill="#eef1f4" stroke="#c9ccd0" stroke-width="0.8"/>
<rect x="637.5" y="118" width="24.8" height="24" rx="2" fill="#eef1f4" stroke="#c9ccd0" stroke-width="0.8"/>
<rect x="663.8" y="118" width="24.8" height="24" rx="2" fill="#eef1f4" stroke="#c9ccd0" stroke-width="0.8"/>
<rect x="690.0" y="118" width="24.8" height="24" rx="2" fill="#eef1f4" stroke="#c9ccd0" stroke-width="0.8"/>
<rect x="716.2" y="118" width="24.8" height="24" rx="2" fill="#eef1f4" stroke="#c9ccd0" stroke-width="0.8"/>
<rect x="742.5" y="118" width="24.8" height="24" rx="2" fill="#eef1f4" stroke="#c9ccd0" stroke-width="0.8"/>
<rect x="768.8" y="118" width="24.8" height="24" rx="2" fill="#eef1f4" stroke="#c9ccd0" stroke-width="0.8"/>
<rect x="795.0" y="118" width="24.8" height="24" rx="2" fill="#2780e3" stroke="#c9ccd0" stroke-width="0.8"/>
<rect x="821.2" y="118" width="24.8" height="24" rx="2" fill="#2780e3" stroke="#c9ccd0" stroke-width="0.8"/>
<rect x="847.5" y="118" width="24.8" height="24" rx="2" fill="#2780e3" stroke="#c9ccd0" stroke-width="0.8"/>
<rect x="873.8" y="118" width="24.8" height="24" rx="2" fill="#2780e3" stroke="#c9ccd0" stroke-width="0.8"/>
<line x1="267" y1="113" x2="267" y2="147" stroke="#d9230f" stroke-width="2"/>
<line x1="901.5" y1="113" x2="901.5" y2="147" stroke="#d9230f" stroke-width="2"/>
<path d="M 901.5 154 C 870 180, 300 180, 267 154" fill="none" stroke="#b07d2b" stroke-width="1.6" stroke-dasharray="5 4"/>
<text x="585.0" y="186" text-anchor="middle" font-size="11.5" font-style="italic" fill="#b07d2b">the two ends are neighbours</text>
<text x="585.0" y="106" text-anchor="middle" font-size="12" fill="#5a5e62">hours; a band near midnight lands at both ends</text>
<path d="M 105.2 289.4 L 96.6 271.3 A 54 54 0 0 1 143.4 271.3 L 134.8 289.4 A 34 34 0 0 0 105.2 289.4 Z" fill="#2780e3" stroke="#fff" stroke-width="1"/>
<path d="M 134.8 289.4 L 143.4 271.3 A 54 54 0 0 1 172.6 308.0 L 153.1 312.4 A 34 34 0 0 0 134.8 289.4 Z" fill="#2780e3" stroke="#fff" stroke-width="1"/>
<path d="M 153.1 312.4 L 172.6 308.0 A 54 54 0 0 1 162.2 353.7 L 146.6 341.2 A 34 34 0 0 0 153.1 312.4 Z" fill="#2780e3" stroke="#fff" stroke-width="1"/>
<path d="M 146.6 341.2 L 162.2 353.7 A 54 54 0 0 1 120.0 374.0 L 120.0 354.0 A 34 34 0 0 0 146.6 341.2 Z" fill="#eef1f4" stroke="#fff" stroke-width="1"/>
<path d="M 120.0 354.0 L 120.0 374.0 A 54 54 0 0 1 77.8 353.7 L 93.4 341.2 A 34 34 0 0 0 120.0 354.0 Z" fill="#eef1f4" stroke="#fff" stroke-width="1"/>
<path d="M 93.4 341.2 L 77.8 353.7 A 54 54 0 0 1 67.4 308.0 L 86.9 312.4 A 34 34 0 0 0 93.4 341.2 Z" fill="#eef1f4" stroke="#fff" stroke-width="1"/>
<path d="M 86.9 312.4 L 67.4 308.0 A 54 54 0 0 1 96.6 271.3 L 105.2 289.4 A 34 34 0 0 0 86.9 312.4 Z" fill="#eef1f4" stroke="#fff" stroke-width="1"/>
<line x1="120" y1="263" x2="120" y2="289" stroke="#d9230f" stroke-width="2"/>
<text x="120" y="324" text-anchor="middle" font-size="14" font-weight="bold" fill="#373a3c">week</text>
<line x1="190" y1="320" x2="248" y2="320" stroke="#868e96" stroke-width="2" marker-end="url(#u)"/>
<text x="219" y="310" text-anchor="middle" font-size="11" fill="#868e96">unrolls</text>
<rect x="270.0" y="308" width="88.5" height="24" rx="2" fill="#2780e3" stroke="#c9ccd0" stroke-width="0.8"/>
<rect x="360.0" y="308" width="88.5" height="24" rx="2" fill="#2780e3" stroke="#c9ccd0" stroke-width="0.8"/>
<rect x="450.0" y="308" width="88.5" height="24" rx="2" fill="#2780e3" stroke="#c9ccd0" stroke-width="0.8"/>
<rect x="540.0" y="308" width="88.5" height="24" rx="2" fill="#eef1f4" stroke="#c9ccd0" stroke-width="0.8"/>
<rect x="630.0" y="308" width="88.5" height="24" rx="2" fill="#eef1f4" stroke="#c9ccd0" stroke-width="0.8"/>
<rect x="720.0" y="308" width="88.5" height="24" rx="2" fill="#eef1f4" stroke="#c9ccd0" stroke-width="0.8"/>
<rect x="810.0" y="308" width="88.5" height="24" rx="2" fill="#eef1f4" stroke="#c9ccd0" stroke-width="0.8"/>
<line x1="267" y1="303" x2="267" y2="337" stroke="#d9230f" stroke-width="2"/>
<line x1="901.5" y1="303" x2="901.5" y2="337" stroke="#d9230f" stroke-width="2"/>
<path d="M 901.5 344 C 870 370, 300 370, 267 344" fill="none" stroke="#b07d2b" stroke-width="1.6" stroke-dasharray="5 4"/>
<text x="585.0" y="376" text-anchor="middle" font-size="11.5" font-style="italic" fill="#b07d2b">the two ends are neighbours</text>
<text x="585.0" y="296" text-anchor="middle" font-size="12" fill="#5a5e62">days; Tuesday touches Monday and Wednesday</text>
<path d="M 116.4 476.2 L 114.4 456.3 A 54 54 0 0 1 125.6 456.3 L 123.6 476.2 A 34 34 0 0 0 116.4 476.2 Z" fill="#eef1f4" stroke="#fff" stroke-width="1"/>
<path d="M 123.6 476.2 L 125.6 456.3 A 54 54 0 0 1 136.7 458.6 L 130.5 477.7 A 34 34 0 0 0 123.6 476.2 Z" fill="#eef1f4" stroke="#fff" stroke-width="1"/>
<path d="M 130.5 477.7 L 136.7 458.6 A 54 54 0 0 1 147.0 463.2 L 137.0 480.6 A 34 34 0 0 0 130.5 477.7 Z" fill="#eef1f4" stroke="#fff" stroke-width="1"/>
<path d="M 137.0 480.6 L 147.0 463.2 A 54 54 0 0 1 156.1 469.9 L 142.8 484.7 A 34 34 0 0 0 137.0 480.6 Z" fill="#eef1f4" stroke="#fff" stroke-width="1"/>
<path d="M 142.8 484.7 L 156.1 469.9 A 54 54 0 0 1 163.7 478.3 L 147.5 490.0 A 34 34 0 0 0 142.8 484.7 Z" fill="#eef1f4" stroke="#fff" stroke-width="1"/>
<path d="M 147.5 490.0 L 163.7 478.3 A 54 54 0 0 1 169.3 488.0 L 151.1 496.2 A 34 34 0 0 0 147.5 490.0 Z" fill="#eef1f4" stroke="#fff" stroke-width="1"/>
<path d="M 151.1 496.2 L 169.3 488.0 A 54 54 0 0 1 172.8 498.8 L 153.3 502.9 A 34 34 0 0 0 151.1 496.2 Z" fill="#eef1f4" stroke="#fff" stroke-width="1"/>
<path d="M 153.3 502.9 L 172.8 498.8 A 54 54 0 0 1 174.0 510.0 L 154.0 510.0 A 34 34 0 0 0 153.3 502.9 Z" fill="#eef1f4" stroke="#fff" stroke-width="1"/>
<path d="M 154.0 510.0 L 174.0 510.0 A 54 54 0 0 1 172.8 521.2 L 153.3 517.1 A 34 34 0 0 0 154.0 510.0 Z" fill="#eef1f4" stroke="#fff" stroke-width="1"/>
<path d="M 153.3 517.1 L 172.8 521.2 A 54 54 0 0 1 169.3 532.0 L 151.1 523.8 A 34 34 0 0 0 153.3 517.1 Z" fill="#eef1f4" stroke="#fff" stroke-width="1"/>
<path d="M 151.1 523.8 L 169.3 532.0 A 54 54 0 0 1 163.7 541.7 L 147.5 530.0 A 34 34 0 0 0 151.1 523.8 Z" fill="#eef1f4" stroke="#fff" stroke-width="1"/>
<path d="M 147.5 530.0 L 163.7 541.7 A 54 54 0 0 1 156.1 550.1 L 142.8 535.3 A 34 34 0 0 0 147.5 530.0 Z" fill="#eef1f4" stroke="#fff" stroke-width="1"/>
<path d="M 142.8 535.3 L 156.1 550.1 A 54 54 0 0 1 147.0 556.8 L 137.0 539.4 A 34 34 0 0 0 142.8 535.3 Z" fill="#2780e3" stroke="#fff" stroke-width="1"/>
<path d="M 137.0 539.4 L 147.0 556.8 A 54 54 0 0 1 136.7 561.4 L 130.5 542.3 A 34 34 0 0 0 137.0 539.4 Z" fill="#2780e3" stroke="#fff" stroke-width="1"/>
<path d="M 130.5 542.3 L 136.7 561.4 A 54 54 0 0 1 125.6 563.7 L 123.6 543.8 A 34 34 0 0 0 130.5 542.3 Z" fill="#2780e3" stroke="#fff" stroke-width="1"/>
<path d="M 123.6 543.8 L 125.6 563.7 A 54 54 0 0 1 114.4 563.7 L 116.4 543.8 A 34 34 0 0 0 123.6 543.8 Z" fill="#2780e3" stroke="#fff" stroke-width="1"/>
<path d="M 116.4 543.8 L 114.4 563.7 A 54 54 0 0 1 103.3 561.4 L 109.5 542.3 A 34 34 0 0 0 116.4 543.8 Z" fill="#2780e3" stroke="#fff" stroke-width="1"/>
<path d="M 109.5 542.3 L 103.3 561.4 A 54 54 0 0 1 93.0 556.8 L 103.0 539.4 A 34 34 0 0 0 109.5 542.3 Z" fill="#eef1f4" stroke="#fff" stroke-width="1"/>
<path d="M 103.0 539.4 L 93.0 556.8 A 54 54 0 0 1 83.9 550.1 L 97.2 535.3 A 34 34 0 0 0 103.0 539.4 Z" fill="#eef1f4" stroke="#fff" stroke-width="1"/>
<path d="M 97.2 535.3 L 83.9 550.1 A 54 54 0 0 1 76.3 541.7 L 92.5 530.0 A 34 34 0 0 0 97.2 535.3 Z" fill="#eef1f4" stroke="#fff" stroke-width="1"/>
<path d="M 92.5 530.0 L 76.3 541.7 A 54 54 0 0 1 70.7 532.0 L 88.9 523.8 A 34 34 0 0 0 92.5 530.0 Z" fill="#eef1f4" stroke="#fff" stroke-width="1"/>
<path d="M 88.9 523.8 L 70.7 532.0 A 54 54 0 0 1 67.2 521.2 L 86.7 517.1 A 34 34 0 0 0 88.9 523.8 Z" fill="#eef1f4" stroke="#fff" stroke-width="1"/>
<path d="M 86.7 517.1 L 67.2 521.2 A 54 54 0 0 1 66.0 510.0 L 86.0 510.0 A 34 34 0 0 0 86.7 517.1 Z" fill="#eef1f4" stroke="#fff" stroke-width="1"/>
<path d="M 86.0 510.0 L 66.0 510.0 A 54 54 0 0 1 67.2 498.8 L 86.7 502.9 A 34 34 0 0 0 86.0 510.0 Z" fill="#eef1f4" stroke="#fff" stroke-width="1"/>
<path d="M 86.7 502.9 L 67.2 498.8 A 54 54 0 0 1 70.7 488.0 L 88.9 496.2 A 34 34 0 0 0 86.7 502.9 Z" fill="#eef1f4" stroke="#fff" stroke-width="1"/>
<path d="M 88.9 496.2 L 70.7 488.0 A 54 54 0 0 1 76.3 478.3 L 92.5 490.0 A 34 34 0 0 0 88.9 496.2 Z" fill="#eef1f4" stroke="#fff" stroke-width="1"/>
<path d="M 92.5 490.0 L 76.3 478.3 A 54 54 0 0 1 83.9 469.9 L 97.2 484.7 A 34 34 0 0 0 92.5 490.0 Z" fill="#eef1f4" stroke="#fff" stroke-width="1"/>
<path d="M 97.2 484.7 L 83.9 469.9 A 54 54 0 0 1 93.0 463.2 L 103.0 480.6 A 34 34 0 0 0 97.2 484.7 Z" fill="#eef1f4" stroke="#fff" stroke-width="1"/>
<path d="M 103.0 480.6 L 93.0 463.2 A 54 54 0 0 1 103.3 458.6 L 109.5 477.7 A 34 34 0 0 0 103.0 480.6 Z" fill="#eef1f4" stroke="#fff" stroke-width="1"/>
<path d="M 109.5 477.7 L 103.3 458.6 A 54 54 0 0 1 114.4 456.3 L 116.4 476.2 A 34 34 0 0 0 109.5 477.7 Z" fill="#eef1f4" stroke="#fff" stroke-width="1"/>
<line x1="120" y1="453" x2="120" y2="479" stroke="#d9230f" stroke-width="2"/>
<text x="120" y="514" text-anchor="middle" font-size="14" font-weight="bold" fill="#373a3c">month</text>
<line x1="190" y1="510" x2="248" y2="510" stroke="#868e96" stroke-width="2" marker-end="url(#u)"/>
<text x="219" y="500" text-anchor="middle" font-size="11" fill="#868e96">unrolls</text>
<rect x="270.0" y="498" width="19.5" height="24" rx="2" fill="#eef1f4" stroke="#c9ccd0" stroke-width="0.8"/>
<rect x="291.0" y="498" width="19.5" height="24" rx="2" fill="#eef1f4" stroke="#c9ccd0" stroke-width="0.8"/>
<rect x="312.0" y="498" width="19.5" height="24" rx="2" fill="#eef1f4" stroke="#c9ccd0" stroke-width="0.8"/>
<rect x="333.0" y="498" width="19.5" height="24" rx="2" fill="#eef1f4" stroke="#c9ccd0" stroke-width="0.8"/>
<rect x="354.0" y="498" width="19.5" height="24" rx="2" fill="#eef1f4" stroke="#c9ccd0" stroke-width="0.8"/>
<rect x="375.0" y="498" width="19.5" height="24" rx="2" fill="#eef1f4" stroke="#c9ccd0" stroke-width="0.8"/>
<rect x="396.0" y="498" width="19.5" height="24" rx="2" fill="#eef1f4" stroke="#c9ccd0" stroke-width="0.8"/>
<rect x="417.0" y="498" width="19.5" height="24" rx="2" fill="#eef1f4" stroke="#c9ccd0" stroke-width="0.8"/>
<rect x="438.0" y="498" width="19.5" height="24" rx="2" fill="#eef1f4" stroke="#c9ccd0" stroke-width="0.8"/>
<rect x="459.0" y="498" width="19.5" height="24" rx="2" fill="#eef1f4" stroke="#c9ccd0" stroke-width="0.8"/>
<rect x="480.0" y="498" width="19.5" height="24" rx="2" fill="#eef1f4" stroke="#c9ccd0" stroke-width="0.8"/>
<rect x="501.0" y="498" width="19.5" height="24" rx="2" fill="#eef1f4" stroke="#c9ccd0" stroke-width="0.8"/>
<rect x="522.0" y="498" width="19.5" height="24" rx="2" fill="#2780e3" stroke="#c9ccd0" stroke-width="0.8"/>
<rect x="543.0" y="498" width="19.5" height="24" rx="2" fill="#2780e3" stroke="#c9ccd0" stroke-width="0.8"/>
<rect x="564.0" y="498" width="19.5" height="24" rx="2" fill="#2780e3" stroke="#c9ccd0" stroke-width="0.8"/>
<rect x="585.0" y="498" width="19.5" height="24" rx="2" fill="#2780e3" stroke="#c9ccd0" stroke-width="0.8"/>
<rect x="606.0" y="498" width="19.5" height="24" rx="2" fill="#2780e3" stroke="#c9ccd0" stroke-width="0.8"/>
<rect x="627.0" y="498" width="19.5" height="24" rx="2" fill="#eef1f4" stroke="#c9ccd0" stroke-width="0.8"/>
<rect x="648.0" y="498" width="19.5" height="24" rx="2" fill="#eef1f4" stroke="#c9ccd0" stroke-width="0.8"/>
<rect x="669.0" y="498" width="19.5" height="24" rx="2" fill="#eef1f4" stroke="#c9ccd0" stroke-width="0.8"/>
<rect x="690.0" y="498" width="19.5" height="24" rx="2" fill="#eef1f4" stroke="#c9ccd0" stroke-width="0.8"/>
<rect x="711.0" y="498" width="19.5" height="24" rx="2" fill="#eef1f4" stroke="#c9ccd0" stroke-width="0.8"/>
<rect x="732.0" y="498" width="19.5" height="24" rx="2" fill="#eef1f4" stroke="#c9ccd0" stroke-width="0.8"/>
<rect x="753.0" y="498" width="19.5" height="24" rx="2" fill="#eef1f4" stroke="#c9ccd0" stroke-width="0.8"/>
<rect x="774.0" y="498" width="19.5" height="24" rx="2" fill="#eef1f4" stroke="#c9ccd0" stroke-width="0.8"/>
<rect x="795.0" y="498" width="19.5" height="24" rx="2" fill="#eef1f4" stroke="#c9ccd0" stroke-width="0.8"/>
<rect x="816.0" y="498" width="19.5" height="24" rx="2" fill="#eef1f4" stroke="#c9ccd0" stroke-width="0.8"/>
<rect x="837.0" y="498" width="19.5" height="24" rx="2" fill="#eef1f4" stroke="#c9ccd0" stroke-width="0.8"/>
<rect x="858.0" y="498" width="19.5" height="24" rx="2" fill="#eef1f4" stroke="#c9ccd0" stroke-width="0.8"/>
<rect x="879.0" y="498" width="19.5" height="24" rx="2" fill="#eef1f4" stroke="#c9ccd0" stroke-width="0.8"/>
<line x1="267" y1="493" x2="267" y2="527" stroke="#d9230f" stroke-width="2"/>
<line x1="901.5" y1="493" x2="901.5" y2="527" stroke="#d9230f" stroke-width="2"/>
<path d="M 901.5 534 C 870 560, 300 560, 267 534" fill="none" stroke="#b07d2b" stroke-width="1.6" stroke-dasharray="5 4"/>
<text x="585.0" y="566" text-anchor="middle" font-size="11.5" font-style="italic" fill="#b07d2b">the two ends are neighbours</text>
<text x="585.0" y="486" text-anchor="middle" font-size="12" fill="#5a5e62">days; the encoding is the same at any period</text>
<text x="480" y="625" text-anchor="middle" font-size="12" fill="#868e96">the red mark is the same seam on the circle and the row · US 12,443,654 B2</text>
</svg>