<svg xmlns="http://www.w3.org/2000/svg" viewBox="0 0 960 680" font-family="Helvetica, Arial, sans-serif">
  <defs>
    <marker id="arrow" viewBox="0 0 10 10" refX="9" refY="5" markerWidth="8" markerHeight="8" orient="auto-start-reverse">
      <path d="M 0 0 L 10 5 L 0 10 z" fill="#868e96"/>
    </marker>
    <marker id="arrowAmber" viewBox="0 0 10 10" refX="9" refY="5" markerWidth="8" markerHeight="8" orient="auto-start-reverse">
      <path d="M 0 0 L 10 5 L 0 10 z" fill="#b07d2b"/>
    </marker>
  </defs>

  <!-- ===== Row 1 ===== -->

  <!-- Panel 1: the scene -->
  <g>
    <rect x="25" y="40" width="285" height="200" rx="12" fill="#f8f9fa" stroke="#dee2e6" stroke-width="1.5"/>
    <text x="45" y="70" font-size="13" font-weight="bold" fill="#2780e3">1 · THE SCENE</text>
    <!-- camera on wall, view cone, incident -->
    <rect x="60" y="92" width="38" height="24" rx="5" fill="#2780e3"/>
    <path d="M98 98 l14 -7 v24 l-14 -7 z" fill="#2780e3"/>
    <circle cx="74" cy="104" r="6" fill="#ffffff"/>
    <path d="M112 104 L235 76 L235 132 Z" fill="#2780e3" opacity="0.10"/>
    <!-- incident: burst -->
    <path d="M225 104 l-9 -22 l12 8 l5 -15 l5 15 l12 -8 l-9 22 l14 3 l-14 5 l6 14 l-14 -8 l-14 8 l6 -14 l-14 -5 z" fill="#d9230f"/>
    <text x="167" y="172" text-anchor="middle" font-size="13" fill="#373a3c">
      <tspan x="167" dy="0">A camera is already watching</tspan>
      <tspan x="167" dy="17">when the incident happens</tspan>
      <tspan x="167" dy="17">in its view</tspan>
    </text>
  </g>

  <line x1="313" y1="140" x2="337" y2="140" stroke="#868e96" stroke-width="2" marker-end="url(#arrow)"/>

  <!-- Panel 2: nothing happens -->
  <g>
    <rect x="340" y="40" width="285" height="200" rx="12" fill="#f8f9fa" stroke="#dee2e6" stroke-width="1.5"/>
    <text x="360" y="70" font-size="13" font-weight="bold" fill="#868e96">2 · AND NOTHING HAPPENS</text>
    <!-- film strip -->
    <rect x="400" y="94" width="160" height="26" rx="3" fill="none" stroke="#868e96" stroke-width="1.5"/>
    <line x1="432" y1="94" x2="432" y2="120" stroke="#868e96" stroke-width="1.5"/>
    <line x1="464" y1="94" x2="464" y2="120" stroke="#868e96" stroke-width="1.5"/>
    <line x1="496" y1="94" x2="496" y2="120" stroke="#868e96" stroke-width="1.5"/>
    <line x1="528" y1="94" x2="528" y2="120" stroke="#868e96" stroke-width="1.5"/>
    <path d="M416 114 l-8 -16 l4 3 l2 -5 l2 5 l4 -3 z" fill="#d9230f" opacity="0.6"/>
    <text x="482" y="172" text-anchor="middle" font-size="13" fill="#373a3c">
      <tspan x="482" dy="0">It records everything and</tspan>
      <tspan x="482" dy="17">does nothing. It has no way</tspan>
      <tspan x="482" dy="17">to know this matters.</tspan>
    </text>
  </g>

  <line x1="628" y1="140" x2="652" y2="140" stroke="#868e96" stroke-width="2" marker-end="url(#arrow)"/>

  <!-- Panel 3: the call -->
  <g>
    <rect x="655" y="40" width="285" height="200" rx="12" fill="#f8f9fa" stroke="#dee2e6" stroke-width="1.5"/>
    <text x="675" y="70" font-size="13" font-weight="bold" fill="#2780e3">3 · THE CALL</text>
    <rect x="782" y="86" width="30" height="52" rx="7" fill="#2780e3"/>
    <rect x="788" y="94" width="18" height="30" rx="2" fill="#ffffff" opacity="0.85"/>
    <text x="797" y="116" text-anchor="middle" font-size="10" font-weight="bold" fill="#2780e3">911</text>
    <text x="797" y="172" text-anchor="middle" font-size="13" fill="#373a3c">
      <tspan x="797" dy="0">Minutes later someone safe</tspan>
      <tspan x="797" dy="17">calls 911, with the incident's</tspan>
      <tspan x="797" dy="17">time and place</tspan>
    </text>
  </g>

  <!-- wrap connector: panel 3 down, across, into panel 4 -->
  <path d="M 797 244 v 26 H 167 v 26" fill="none" stroke="#868e96" stroke-width="2" marker-end="url(#arrow)"/>

  <!-- ===== Row 2 ===== -->

  <!-- Panel 4: the lookback -->
  <g>
    <rect x="25" y="300" width="285" height="240" rx="12" fill="#f8f9fa" stroke="#dee2e6" stroke-width="1.5"/>
    <text x="45" y="330" font-size="13" font-weight="bold" fill="#2780e3">4 · THE LOOKBACK</text>
    <!-- rewind arrow into film -->
    <path d="M 110 360 a 20 20 0 1 1 -6 23" fill="none" stroke="#2780e3" stroke-width="3"/>
    <path d="M 100 380 l 2 11 l 9 -7 z" fill="#2780e3"/>
    <!-- chips -->
    <rect x="160" y="348" width="80" height="22" rx="11" fill="#2780e3" opacity="0.15"/>
    <text x="200" y="363" text-anchor="middle" font-size="11.5" fill="#1c5da8">explosion</text>
    <rect x="160" y="376" width="40" height="22" rx="11" fill="#2780e3" opacity="0.15"/>
    <text x="180" y="391" text-anchor="middle" font-size="11.5" fill="#1c5da8">fire</text>
    <rect x="206" y="376" width="40" height="22" rx="11" fill="#2780e3" opacity="0.15"/>
    <text x="226" y="391" text-anchor="middle" font-size="11.5" fill="#1c5da8">car</text>
    <rect x="160" y="404" width="60" height="22" rx="11" fill="#2780e3" opacity="0.15"/>
    <text x="190" y="419" text-anchor="middle" font-size="11.5" fill="#1c5da8">people</text>
    <rect x="226" y="404" width="62" height="22" rx="11" fill="#2780e3" opacity="0.15"/>
    <text x="257" y="419" text-anchor="middle" font-size="11.5" fill="#1c5da8">scream</text>
    <text x="167" y="466" text-anchor="middle" font-size="13" fill="#373a3c">
      <tspan x="167" dy="0">The call points back into the</tspan>
      <tspan x="167" dy="17">camera's recording, and software</tspan>
      <tspan x="167" dy="17">tags what the camera saw</tspan>
    </text>
  </g>

  <!-- tie-back arrow (label drawn after panel 5 so it stays on top) -->
  <line x1="313" y1="400" x2="337" y2="400" stroke="#b07d2b" stroke-width="2" marker-end="url(#arrowAmber)"/>

  <!-- Panel 5: the tripwire, on the camera -->
  <g>
    <rect x="340" y="300" width="285" height="240" rx="12" fill="#fff8ec" stroke="#f0ad4e" stroke-width="1.5"/>
    <text x="360" y="330" font-size="13" font-weight="bold" fill="#b07d2b">5 · THE TRIPWIRE</text>
    <!-- same camera, now wearing the shield -->
    <rect x="428" y="356" width="38" height="24" rx="5" fill="#2780e3"/>
    <path d="M466 362 l14 -7 v24 l-14 -7 z" fill="#2780e3"/>
    <circle cx="442" cy="368" r="6" fill="#ffffff"/>
    <path d="M497 344 l18 7 v13 c0 11 -8 19 -18 24 c-10 -5 -18 -13 -18 -24 v-13 z" fill="#f0ad4e"/>
    <text x="497" y="368" text-anchor="middle" font-size="14" font-weight="bold" fill="#ffffff">if</text>
    <!-- condition + response card -->
    <rect x="360" y="398" width="245" height="118" rx="8" fill="#ffffff" stroke="#f0ad4e"/>
    <text x="482" y="420" text-anchor="middle" font-size="12.5" font-style="italic" fill="#373a3c">
      <tspan x="482" dy="0">if a new clip's tags share at</tspan>
      <tspan x="482" dy="16">least 4 of the 5 words</tspan>
    </text>
    <line x1="380" y1="446" x2="585" y2="446" stroke="#f0ad4e" stroke-width="1"/>
    <text x="482" y="466" text-anchor="middle" font-size="12.5" fill="#5a5e62">
      <tspan x="482" dy="0">notify responders' radios</tspan>
      <tspan x="482" dy="16">alert the call taker</tspan>
      <tspan x="482" dy="16">open doors · sound sirens</tspan>
    </text>
  </g>

  <!-- tie-back label, on top of panels -->
  <text x="325" y="382" text-anchor="middle" font-size="11.5" font-style="italic" fill="#b07d2b">tied back</text>
  <text x="325" y="428" text-anchor="middle" font-size="11.5" font-style="italic" fill="#b07d2b">to the camera</text>

  <line x1="628" y1="400" x2="652" y2="400" stroke="#868e96" stroke-width="2" marker-end="url(#arrow)"/>

  <!-- Panel 6: it fires -->
  <g>
    <rect x="655" y="300" width="285" height="240" rx="12" fill="#fdf0ee" stroke="#d9230f" stroke-width="1.5"/>
    <text x="675" y="330" font-size="13" font-weight="bold" fill="#d9230f">6 · IT FIRES</text>
    <path d="M775 408 h44 v10 h-52 v-10 z" fill="#d9230f"/>
    <path d="M781 408 v-14 a16 16 0 0 1 32 0 v14 z" fill="#d9230f"/>
    <line x1="797" y1="368" x2="797" y2="378" stroke="#d9230f" stroke-width="3.5" stroke-linecap="round"/>
    <line x1="771" y1="374" x2="778" y2="382" stroke="#d9230f" stroke-width="3.5" stroke-linecap="round"/>
    <line x1="823" y1="374" x2="816" y2="382" stroke="#d9230f" stroke-width="3.5" stroke-linecap="round"/>
    <text x="797" y="462" text-anchor="middle" font-size="13" fill="#373a3c">
      <tspan x="797" dy="0">The camera keeps tagging what</tspan>
      <tspan x="797" dy="17">it sees. When the tags match,</tspan>
      <tspan x="797" dy="17">the response starts on its own.</tspan>
      <tspan x="797" dy="21" font-style="italic" fill="#d9230f">No one has to call.</tspan>
    </text>
  </g>

  <!-- caption -->
  <text x="480" y="610" text-anchor="middle" font-size="13" fill="#868e96">US 12,634,398 B2 · the word set and response actions are the patent's own example</text>
</svg>
