<svg xmlns="http://www.w3.org/2000/svg" viewBox="0 0 940 520" font-family="Helvetica, Arial, sans-serif">
<defs><marker id="r" viewBox="0 0 10 10" refX="9" refY="5" markerWidth="8" markerHeight="8" orient="auto-start-reverse"><path d="M 0 0 L 10 5 L 0 10 z" fill="#d9230f"/></marker></defs>
<text x="360" y="38" text-anchor="middle" font-size="15" font-weight="bold" fill="#373a3c">normal poses cluster; a fall lands nowhere near them</text>
<circle cx="200" cy="150" r="66" fill="#2e8540" opacity="0.06"/>
<circle cx="200" cy="150" r="66" fill="none" stroke="#868e96" stroke-width="1.6" stroke-dasharray="6 5"/>
<circle cx="201" cy="183" r="4" fill="#2e8540" opacity="0.6"/>
<circle cx="229" cy="138" r="4" fill="#2e8540" opacity="0.6"/>
<circle cx="193" cy="137" r="4" fill="#2e8540" opacity="0.6"/>
<circle cx="214" cy="149" r="4" fill="#2e8540" opacity="0.6"/>
<circle cx="218" cy="106" r="4" fill="#2e8540" opacity="0.6"/>
<circle cx="238" cy="148" r="4" fill="#2e8540" opacity="0.6"/>
<circle cx="216" cy="147" r="4" fill="#2e8540" opacity="0.6"/>
<circle cx="191" cy="161" r="4" fill="#2e8540" opacity="0.6"/>
<circle cx="220" cy="145" r="4" fill="#2e8540" opacity="0.6"/>
<circle cx="196" cy="166" r="4" fill="#2e8540" opacity="0.6"/>
<circle cx="179" cy="114" r="4" fill="#2e8540" opacity="0.6"/>
<line x1="200.0" y1="130.7" x2="200.0" y2="135.7" stroke="#373a3c" stroke-width="1.6" stroke-linecap="round"/>
<line x1="200.0" y1="135.7" x2="195.4" y2="136.6" stroke="#373a3c" stroke-width="1.6" stroke-linecap="round"/>
<line x1="200.0" y1="135.7" x2="204.6" y2="136.6" stroke="#373a3c" stroke-width="1.6" stroke-linecap="round"/>
<line x1="195.4" y1="136.6" x2="193.7" y2="143.3" stroke="#373a3c" stroke-width="1.6" stroke-linecap="round"/>
<line x1="193.7" y1="143.3" x2="193.3" y2="150.0" stroke="#373a3c" stroke-width="1.6" stroke-linecap="round"/>
<line x1="204.6" y1="136.6" x2="206.3" y2="143.3" stroke="#373a3c" stroke-width="1.6" stroke-linecap="round"/>
<line x1="206.3" y1="143.3" x2="206.7" y2="150.0" stroke="#373a3c" stroke-width="1.6" stroke-linecap="round"/>
<line x1="200.0" y1="135.7" x2="200.0" y2="148.3" stroke="#373a3c" stroke-width="1.6" stroke-linecap="round"/>
<line x1="200.0" y1="148.3" x2="196.6" y2="149.2" stroke="#373a3c" stroke-width="1.6" stroke-linecap="round"/>
<line x1="200.0" y1="148.3" x2="203.4" y2="149.2" stroke="#373a3c" stroke-width="1.6" stroke-linecap="round"/>
<line x1="196.6" y1="149.2" x2="196.2" y2="158.4" stroke="#373a3c" stroke-width="1.6" stroke-linecap="round"/>
<line x1="196.2" y1="158.4" x2="195.8" y2="167.6" stroke="#373a3c" stroke-width="1.6" stroke-linecap="round"/>
<line x1="203.4" y1="149.2" x2="203.8" y2="158.4" stroke="#373a3c" stroke-width="1.6" stroke-linecap="round"/>
<line x1="203.8" y1="158.4" x2="204.2" y2="167.6" stroke="#373a3c" stroke-width="1.6" stroke-linecap="round"/>
<circle cx="200.0" cy="130.7" r="3.1" fill="#373a3c"/>
<circle cx="200.0" cy="135.7" r="1.6" fill="#373a3c"/>
<circle cx="195.4" cy="136.6" r="1.6" fill="#373a3c"/>
<circle cx="204.6" cy="136.6" r="1.6" fill="#373a3c"/>
<circle cx="193.7" cy="143.3" r="1.6" fill="#373a3c"/>
<circle cx="206.3" cy="143.3" r="1.6" fill="#373a3c"/>
<circle cx="193.3" cy="150.0" r="1.6" fill="#373a3c"/>
<circle cx="206.7" cy="150.0" r="1.6" fill="#373a3c"/>
<circle cx="200.0" cy="148.3" r="1.6" fill="#373a3c"/>
<circle cx="196.6" cy="149.2" r="1.6" fill="#373a3c"/>
<circle cx="203.4" cy="149.2" r="1.6" fill="#373a3c"/>
<circle cx="196.2" cy="158.4" r="1.6" fill="#373a3c"/>
<circle cx="203.8" cy="158.4" r="1.6" fill="#373a3c"/>
<circle cx="195.8" cy="167.6" r="1.6" fill="#373a3c"/>
<circle cx="204.2" cy="167.6" r="1.6" fill="#373a3c"/>
<text x="200" y="236" text-anchor="middle" font-size="12.5" font-style="italic" fill="#5a5e62">standing</text>
<text x="200" y="253" text-anchor="middle" font-size="11" fill="#a3a8ad">center + radius r</text>
<circle cx="430" cy="140" r="66" fill="#2e8540" opacity="0.06"/>
<circle cx="430" cy="140" r="66" fill="none" stroke="#868e96" stroke-width="1.6" stroke-dasharray="6 5"/>
<circle cx="439" cy="124" r="4" fill="#2e8540" opacity="0.6"/>
<circle cx="384" cy="120" r="4" fill="#2e8540" opacity="0.6"/>
<circle cx="419" cy="111" r="4" fill="#2e8540" opacity="0.6"/>
<circle cx="394" cy="141" r="4" fill="#2e8540" opacity="0.6"/>
<circle cx="452" cy="134" r="4" fill="#2e8540" opacity="0.6"/>
<circle cx="412" cy="149" r="4" fill="#2e8540" opacity="0.6"/>
<circle cx="447" cy="133" r="4" fill="#2e8540" opacity="0.6"/>
<circle cx="443" cy="165" r="4" fill="#2e8540" opacity="0.6"/>
<circle cx="425" cy="120" r="4" fill="#2e8540" opacity="0.6"/>
<circle cx="438" cy="146" r="4" fill="#2e8540" opacity="0.6"/>
<circle cx="456" cy="109" r="4" fill="#2e8540" opacity="0.6"/>
<line x1="430.0" y1="127.4" x2="430.0" y2="132.4" stroke="#373a3c" stroke-width="1.6" stroke-linecap="round"/>
<line x1="430.0" y1="132.4" x2="425.4" y2="133.3" stroke="#373a3c" stroke-width="1.6" stroke-linecap="round"/>
<line x1="430.0" y1="132.4" x2="434.6" y2="133.3" stroke="#373a3c" stroke-width="1.6" stroke-linecap="round"/>
<line x1="425.4" y1="133.3" x2="423.7" y2="139.2" stroke="#373a3c" stroke-width="1.6" stroke-linecap="round"/>
<line x1="423.7" y1="139.2" x2="424.1" y2="145.0" stroke="#373a3c" stroke-width="1.6" stroke-linecap="round"/>
<line x1="434.6" y1="133.3" x2="436.3" y2="139.2" stroke="#373a3c" stroke-width="1.6" stroke-linecap="round"/>
<line x1="436.3" y1="139.2" x2="435.9" y2="145.0" stroke="#373a3c" stroke-width="1.6" stroke-linecap="round"/>
<line x1="430.0" y1="132.4" x2="430.0" y2="145.0" stroke="#373a3c" stroke-width="1.6" stroke-linecap="round"/>
<line x1="430.0" y1="145.0" x2="426.6" y2="145.9" stroke="#373a3c" stroke-width="1.6" stroke-linecap="round"/>
<line x1="430.0" y1="145.0" x2="433.4" y2="145.9" stroke="#373a3c" stroke-width="1.6" stroke-linecap="round"/>
<line x1="426.6" y1="145.9" x2="421.6" y2="145.9" stroke="#373a3c" stroke-width="1.6" stroke-linecap="round"/>
<line x1="421.6" y1="145.9" x2="421.6" y2="156.8" stroke="#373a3c" stroke-width="1.6" stroke-linecap="round"/>
<line x1="433.4" y1="145.9" x2="438.4" y2="145.9" stroke="#373a3c" stroke-width="1.6" stroke-linecap="round"/>
<line x1="438.4" y1="145.9" x2="438.4" y2="156.8" stroke="#373a3c" stroke-width="1.6" stroke-linecap="round"/>
<circle cx="430.0" cy="127.4" r="3.1" fill="#373a3c"/>
<circle cx="430.0" cy="132.4" r="1.6" fill="#373a3c"/>
<circle cx="425.4" cy="133.3" r="1.6" fill="#373a3c"/>
<circle cx="434.6" cy="133.3" r="1.6" fill="#373a3c"/>
<circle cx="423.7" cy="139.2" r="1.6" fill="#373a3c"/>
<circle cx="436.3" cy="139.2" r="1.6" fill="#373a3c"/>
<circle cx="424.1" cy="145.0" r="1.6" fill="#373a3c"/>
<circle cx="435.9" cy="145.0" r="1.6" fill="#373a3c"/>
<circle cx="430.0" cy="145.0" r="1.6" fill="#373a3c"/>
<circle cx="426.6" cy="145.9" r="1.6" fill="#373a3c"/>
<circle cx="433.4" cy="145.9" r="1.6" fill="#373a3c"/>
<circle cx="421.6" cy="145.9" r="1.6" fill="#373a3c"/>
<circle cx="438.4" cy="145.9" r="1.6" fill="#373a3c"/>
<circle cx="421.6" cy="156.8" r="1.6" fill="#373a3c"/>
<circle cx="438.4" cy="156.8" r="1.6" fill="#373a3c"/>
<text x="430" y="226" text-anchor="middle" font-size="12.5" font-style="italic" fill="#5a5e62">sitting at a table</text>
<text x="430" y="243" text-anchor="middle" font-size="11" fill="#a3a8ad">center + radius r</text>
<circle cx="300" cy="330" r="66" fill="#2e8540" opacity="0.06"/>
<circle cx="300" cy="330" r="66" fill="none" stroke="#868e96" stroke-width="1.6" stroke-dasharray="6 5"/>
<circle cx="284" cy="310" r="4" fill="#2e8540" opacity="0.6"/>
<circle cx="258" cy="333" r="4" fill="#2e8540" opacity="0.6"/>
<circle cx="313" cy="312" r="4" fill="#2e8540" opacity="0.6"/>
<circle cx="333" cy="350" r="4" fill="#2e8540" opacity="0.6"/>
<circle cx="315" cy="340" r="4" fill="#2e8540" opacity="0.6"/>
<circle cx="323" cy="298" r="4" fill="#2e8540" opacity="0.6"/>
<circle cx="315" cy="344" r="4" fill="#2e8540" opacity="0.6"/>
<circle cx="258" cy="338" r="4" fill="#2e8540" opacity="0.6"/>
<circle cx="294" cy="349" r="4" fill="#2e8540" opacity="0.6"/>
<circle cx="289" cy="330" r="4" fill="#2e8540" opacity="0.6"/>
<circle cx="308" cy="309" r="4" fill="#2e8540" opacity="0.6"/>
<line x1="300.8" y1="310.7" x2="300.4" y2="315.7" stroke="#373a3c" stroke-width="1.6" stroke-linecap="round"/>
<line x1="300.4" y1="315.7" x2="296.2" y2="316.6" stroke="#373a3c" stroke-width="1.6" stroke-linecap="round"/>
<line x1="300.4" y1="315.7" x2="305.0" y2="317.0" stroke="#373a3c" stroke-width="1.6" stroke-linecap="round"/>
<line x1="296.2" y1="316.6" x2="293.3" y2="321.6" stroke="#373a3c" stroke-width="1.6" stroke-linecap="round"/>
<line x1="293.3" y1="321.6" x2="291.6" y2="327.5" stroke="#373a3c" stroke-width="1.6" stroke-linecap="round"/>
<line x1="305.0" y1="317.0" x2="307.1" y2="322.4" stroke="#373a3c" stroke-width="1.6" stroke-linecap="round"/>
<line x1="307.1" y1="322.4" x2="308.4" y2="328.3" stroke="#373a3c" stroke-width="1.6" stroke-linecap="round"/>
<line x1="300.4" y1="315.7" x2="300.0" y2="328.3" stroke="#373a3c" stroke-width="1.6" stroke-linecap="round"/>
<line x1="300.0" y1="328.3" x2="297.1" y2="329.2" stroke="#373a3c" stroke-width="1.6" stroke-linecap="round"/>
<line x1="300.0" y1="328.3" x2="303.4" y2="329.2" stroke="#373a3c" stroke-width="1.6" stroke-linecap="round"/>
<line x1="297.1" y1="329.2" x2="293.3" y2="337.6" stroke="#373a3c" stroke-width="1.6" stroke-linecap="round"/>
<line x1="293.3" y1="337.6" x2="289.9" y2="346.8" stroke="#373a3c" stroke-width="1.6" stroke-linecap="round"/>
<line x1="303.4" y1="329.2" x2="305.9" y2="338.4" stroke="#373a3c" stroke-width="1.6" stroke-linecap="round"/>
<line x1="305.9" y1="338.4" x2="309.2" y2="347.6" stroke="#373a3c" stroke-width="1.6" stroke-linecap="round"/>
<circle cx="300.8" cy="310.7" r="3.1" fill="#373a3c"/>
<circle cx="300.4" cy="315.7" r="1.6" fill="#373a3c"/>
<circle cx="296.2" cy="316.6" r="1.6" fill="#373a3c"/>
<circle cx="305.0" cy="317.0" r="1.6" fill="#373a3c"/>
<circle cx="293.3" cy="321.6" r="1.6" fill="#373a3c"/>
<circle cx="307.1" cy="322.4" r="1.6" fill="#373a3c"/>
<circle cx="291.6" cy="327.5" r="1.6" fill="#373a3c"/>
<circle cx="308.4" cy="328.3" r="1.6" fill="#373a3c"/>
<circle cx="300.0" cy="328.3" r="1.6" fill="#373a3c"/>
<circle cx="297.1" cy="329.2" r="1.6" fill="#373a3c"/>
<circle cx="303.4" cy="329.2" r="1.6" fill="#373a3c"/>
<circle cx="293.3" cy="337.6" r="1.6" fill="#373a3c"/>
<circle cx="305.9" cy="338.4" r="1.6" fill="#373a3c"/>
<circle cx="289.9" cy="346.8" r="1.6" fill="#373a3c"/>
<circle cx="309.2" cy="347.6" r="1.6" fill="#373a3c"/>
<text x="300" y="416" text-anchor="middle" font-size="12.5" font-style="italic" fill="#5a5e62">walking through</text>
<text x="300" y="433" text-anchor="middle" font-size="11" fill="#a3a8ad">center + radius r</text>
<circle cx="470" cy="330" r="24" fill="none" stroke="#868e96" stroke-width="1.4" stroke-dasharray="3 3" opacity="0.7"/>
<circle cx="464" cy="326" r="4" fill="#868e96" opacity="0.5"/><circle cx="476" cy="334" r="4" fill="#868e96" opacity="0.5"/>
<line x1="452" y1="312" x2="488" y2="348" stroke="#868e96" stroke-width="1.4"/>
<text x="470" y="372" text-anchor="middle" font-size="11.5" font-style="italic" fill="#a3a8ad">too rare in training,</text>
<text x="470" y="387" text-anchor="middle" font-size="11.5" font-style="italic" fill="#a3a8ad">dropped from normal</text>
<circle cx="720" cy="300" r="11" fill="#d9230f"/>
<circle cx="720" cy="300" r="20" fill="none" stroke="#d9230f" stroke-width="2" opacity="0.6"/>
<circle cx="720" cy="300" r="29" fill="none" stroke="#d9230f" stroke-width="1.5" opacity="0.3"/>
<line x1="698.0" y1="306.0" x2="705.0" y2="305.0" stroke="#d9230f" stroke-width="1.8" stroke-linecap="round"/>
<line x1="705.0" y1="305.0" x2="705.0" y2="301.0" stroke="#d9230f" stroke-width="1.8" stroke-linecap="round"/>
<line x1="705.0" y1="305.0" x2="706.0" y2="309.0" stroke="#d9230f" stroke-width="1.8" stroke-linecap="round"/>
<line x1="705.0" y1="301.0" x2="713.0" y2="299.0" stroke="#d9230f" stroke-width="1.8" stroke-linecap="round"/>
<line x1="713.0" y1="299.0" x2="720.0" y2="297.0" stroke="#d9230f" stroke-width="1.8" stroke-linecap="round"/>
<line x1="706.0" y1="309.0" x2="714.0" y2="311.0" stroke="#d9230f" stroke-width="1.8" stroke-linecap="round"/>
<line x1="714.0" y1="311.0" x2="721.0" y2="311.0" stroke="#d9230f" stroke-width="1.8" stroke-linecap="round"/>
<line x1="705.0" y1="305.0" x2="719.0" y2="306.0" stroke="#d9230f" stroke-width="1.8" stroke-linecap="round"/>
<line x1="719.0" y1="306.0" x2="719.0" y2="302.0" stroke="#d9230f" stroke-width="1.8" stroke-linecap="round"/>
<line x1="719.0" y1="306.0" x2="720.0" y2="310.0" stroke="#d9230f" stroke-width="1.8" stroke-linecap="round"/>
<line x1="719.0" y1="302.0" x2="731.0" y2="303.0" stroke="#d9230f" stroke-width="1.8" stroke-linecap="round"/>
<line x1="731.0" y1="303.0" x2="742.0" y2="302.0" stroke="#d9230f" stroke-width="1.8" stroke-linecap="round"/>
<line x1="720.0" y1="310.0" x2="732.0" y2="310.0" stroke="#d9230f" stroke-width="1.8" stroke-linecap="round"/>
<line x1="732.0" y1="310.0" x2="743.0" y2="309.0" stroke="#d9230f" stroke-width="1.8" stroke-linecap="round"/>
<circle cx="698.0" cy="306.0" r="3.3" fill="#d9230f"/>
<circle cx="705.0" cy="305.0" r="1.8" fill="#d9230f"/>
<circle cx="705.0" cy="301.0" r="1.8" fill="#d9230f"/>
<circle cx="706.0" cy="309.0" r="1.8" fill="#d9230f"/>
<circle cx="713.0" cy="299.0" r="1.8" fill="#d9230f"/>
<circle cx="714.0" cy="311.0" r="1.8" fill="#d9230f"/>
<circle cx="720.0" cy="297.0" r="1.8" fill="#d9230f"/>
<circle cx="721.0" cy="311.0" r="1.8" fill="#d9230f"/>
<circle cx="719.0" cy="306.0" r="1.8" fill="#d9230f"/>
<circle cx="719.0" cy="302.0" r="1.8" fill="#d9230f"/>
<circle cx="720.0" cy="310.0" r="1.8" fill="#d9230f"/>
<circle cx="731.0" cy="303.0" r="1.8" fill="#d9230f"/>
<circle cx="732.0" cy="310.0" r="1.8" fill="#d9230f"/>
<circle cx="742.0" cy="302.0" r="1.8" fill="#d9230f"/>
<circle cx="743.0" cy="309.0" r="1.8" fill="#d9230f"/>
<text x="720" y="358" text-anchor="middle" font-size="13" font-weight="bold" fill="#d9230f">someone on the floor</text>
<line x1="250" y1="180" x2="688" y2="300" stroke="#d9230f" stroke-width="1.3" stroke-dasharray="4 4" opacity="0.55"/>
<line x1="480" y1="170" x2="688" y2="300" stroke="#d9230f" stroke-width="1.3" stroke-dasharray="4 4" opacity="0.55"/>
<line x1="350" y1="360" x2="688" y2="300" stroke="#d9230f" stroke-width="1.3" stroke-dasharray="4 4" opacity="0.55"/>
<text x="710" y="150" text-anchor="middle" font-size="13.5" font-style="italic" fill="#d9230f">far from every</text>
<text x="710" y="168" text-anchor="middle" font-size="13.5" font-style="italic" fill="#d9230f">normal cluster</text>
<rect x="640" y="405" width="150" height="34" rx="8" fill="#d9230f" opacity="0.1"/>
<text x="715" y="427" text-anchor="middle" font-size="14" font-weight="bold" fill="#d9230f">alert</text>
<line x1="720" y1="364" x2="715" y2="403" stroke="#d9230f" stroke-width="2" marker-end="url(#r)"/>
<text x="360" y="500" text-anchor="middle" font-size="12" fill="#868e96">distance past radius r means anomalous; the threshold (0.5r, r, 1.2r) tunes how strict</text>
</svg>