<svg xmlns="http://www.w3.org/2000/svg" viewBox="0 0 940 560" font-family="Helvetica, Arial, sans-serif">
<text x="40" y="40" font-size="14" font-weight="bold" fill="#373a3c">One camera view, divided into cells</text>
<rect x="40" y="148" width="528" height="78" fill="#868e96" opacity="0.13"/>
<rect x="40" y="226" width="528" height="78" fill="#2e8540" opacity="0.10"/>
<line x1="40" y1="70" x2="40" y2="382" stroke="#868e96" stroke-width="1" opacity="0.55"/>
<line x1="128" y1="70" x2="128" y2="382" stroke="#868e96" stroke-width="1" opacity="0.55"/>
<line x1="216" y1="70" x2="216" y2="382" stroke="#868e96" stroke-width="1" opacity="0.55"/>
<line x1="304" y1="70" x2="304" y2="382" stroke="#868e96" stroke-width="1" opacity="0.55"/>
<line x1="392" y1="70" x2="392" y2="382" stroke="#868e96" stroke-width="1" opacity="0.55"/>
<line x1="480" y1="70" x2="480" y2="382" stroke="#868e96" stroke-width="1" opacity="0.55"/>
<line x1="568" y1="70" x2="568" y2="382" stroke="#868e96" stroke-width="1" opacity="0.55"/>
<line x1="40" y1="70" x2="568" y2="70" stroke="#868e96" stroke-width="1" opacity="0.55"/>
<line x1="40" y1="148" x2="568" y2="148" stroke="#868e96" stroke-width="1" opacity="0.55"/>
<line x1="40" y1="226" x2="568" y2="226" stroke="#868e96" stroke-width="1" opacity="0.55"/>
<line x1="40" y1="304" x2="568" y2="304" stroke="#868e96" stroke-width="1" opacity="0.55"/>
<line x1="40" y1="382" x2="568" y2="382" stroke="#868e96" stroke-width="1" opacity="0.55"/>
<rect x="150.0" y="181.0" width="44.0" height="14.0" rx="5.0" fill="#2780e3"/><rect x="161.0" y="173.0" width="22.0" height="9.0" rx="4.0" fill="#2780e3"/><circle cx="161.0" cy="197.0" r="5.0" fill="#373a3c"/><circle cx="183.0" cy="197.0" r="5.0" fill="#373a3c"/>
<rect x="414.0" y="181.0" width="44.0" height="14.0" rx="5.0" fill="#2780e3"/><rect x="425.0" y="173.0" width="22.0" height="9.0" rx="4.0" fill="#2780e3"/><circle cx="425.0" cy="197.0" r="5.0" fill="#373a3c"/><circle cx="447.0" cy="197.0" r="5.0" fill="#373a3c"/>
<circle cx="84" cy="255.0" r="5" fill="#2e8540"/><line x1="84" y1="260.0" x2="84" y2="273.0" stroke="#2e8540" stroke-width="3" stroke-linecap="round"/><line x1="84" y1="273.0" x2="79" y2="284.0" stroke="#2e8540" stroke-width="3" stroke-linecap="round"/><line x1="84" y1="273.0" x2="89" y2="284.0" stroke="#2e8540" stroke-width="3" stroke-linecap="round"/>
<circle cx="158" cy="255.0" r="5" fill="#2e8540"/><line x1="158" y1="260.0" x2="158" y2="273.0" stroke="#2e8540" stroke-width="3" stroke-linecap="round"/><line x1="158" y1="273.0" x2="153" y2="284.0" stroke="#2e8540" stroke-width="3" stroke-linecap="round"/><line x1="158" y1="273.0" x2="163" y2="284.0" stroke="#2e8540" stroke-width="3" stroke-linecap="round"/>
<circle cx="190" cy="255.0" r="5" fill="#2e8540"/><line x1="190" y1="260.0" x2="190" y2="273.0" stroke="#2e8540" stroke-width="3" stroke-linecap="round"/><line x1="190" y1="273.0" x2="185" y2="284.0" stroke="#2e8540" stroke-width="3" stroke-linecap="round"/><line x1="190" y1="273.0" x2="195" y2="284.0" stroke="#2e8540" stroke-width="3" stroke-linecap="round"/>
<circle cx="348" cy="255.0" r="5" fill="#2e8540"/><line x1="348" y1="260.0" x2="348" y2="273.0" stroke="#2e8540" stroke-width="3" stroke-linecap="round"/><line x1="348" y1="273.0" x2="343" y2="284.0" stroke="#2e8540" stroke-width="3" stroke-linecap="round"/><line x1="348" y1="273.0" x2="353" y2="284.0" stroke="#2e8540" stroke-width="3" stroke-linecap="round"/>
<circle cx="520" cy="255.0" r="5" fill="#2e8540"/><line x1="520" y1="260.0" x2="520" y2="273.0" stroke="#2e8540" stroke-width="3" stroke-linecap="round"/><line x1="520" y1="273.0" x2="515" y2="284.0" stroke="#2e8540" stroke-width="3" stroke-linecap="round"/><line x1="520" y1="273.0" x2="525" y2="284.0" stroke="#2e8540" stroke-width="3" stroke-linecap="round"/>
<text x="580" y="187.0" font-size="12.5" fill="#5a5e62">road cells:</text>
<text x="580" y="203.0" font-size="12.5" fill="#5a5e62">vehicles, fast</text>
<text x="580" y="265.0" font-size="12.5" fill="#5a5e62">sidewalk cells:</text>
<text x="580" y="281.0" font-size="12.5" fill="#5a5e62">people, slow</text>
<rect x="304" y="226" width="88" height="78" fill="none" stroke="#f0ad4e" stroke-width="3"/>
<path d="M 348.0 304 V 416" stroke="#f0ad4e" stroke-width="2" stroke-dasharray="5 4" fill="none"/>
<rect x="40" y="422" width="400" height="130" rx="10" fill="#fff8ec" stroke="#f0ad4e" stroke-width="1.5"/>
<text x="56" y="448" font-size="13" font-weight="bold" fill="#b07d2b">THIS CELL, PERSON STATISTICS</text>
<text x="56" y="474" font-size="13" fill="#373a3c">objects: people, a few per minute</text>
<text x="56" y="496" font-size="13" fill="#373a3c">speed: walking pace</text>
<text x="56" y="518" font-size="13" fill="#373a3c">direction: mostly left to right</text>
<rect x="340" y="518" width="10" height="8" fill="#2780e3" opacity="0.75"/>
<rect x="353" y="504" width="10" height="22" fill="#2780e3" opacity="0.75"/>
<rect x="366" y="480" width="10" height="46" fill="#2780e3" opacity="0.75"/>
<rect x="379" y="496" width="10" height="30" fill="#2780e3" opacity="0.75"/>
<rect x="392" y="514" width="10" height="12" fill="#2780e3" opacity="0.75"/>
<rect x="405" y="520" width="10" height="6" fill="#2780e3" opacity="0.75"/>
<text x="379" y="544" text-anchor="middle" font-size="11" fill="#5a5e62">speeds seen</text>
<rect x="416.2" y="260.4" width="39.6" height="12.6" rx="4.5" fill="#d9230f"/><rect x="426.1" y="253.2" width="19.8" height="8.1" rx="3.6" fill="#d9230f"/><circle cx="426.1" cy="275.0" r="4.5" fill="#373a3c"/><circle cx="445.9" cy="275.0" r="4.5" fill="#373a3c"/>
<circle cx="436.0" cy="269.0" r="30" fill="none" stroke="#d9230f" stroke-width="2" opacity="0.6"/>
<circle cx="436.0" cy="269.0" r="38" fill="none" stroke="#d9230f" stroke-width="1.5" opacity="0.3"/>
<path d="M 446.0 307.0 V 452 H 474" stroke="#d9230f" stroke-width="1.5" stroke-dasharray="4 4" fill="none"/>
<text x="484" y="448" font-size="13" font-weight="bold" fill="#d9230f">a car, at speed, in a sidewalk cell</text>
<text x="484" y="468" font-size="13" fill="#373a3c">nothing about this violates a rule,</text>
<text x="484" y="486" font-size="13" fill="#373a3c">because nobody wrote one. It simply</text>
<text x="484" y="504" font-size="13" fill="#373a3c">is invisible to the person grid, and the</text>
<text x="484" y="522" font-size="13" fill="#373a3c">vehicle grid here has never seen anything.</text>
</svg>